<svg width="64" height="69" viewBox="0 0 64 69" fill="none" xmlns="http://www.w3.org/2000/svg">
<path d="M62.054 43.4594H25.0811C24.9091 43.4594 24.7441 43.3911 24.6224 43.2694C24.5008 43.1478 24.4324 42.9828 24.4324 42.8108C24.4324 42.6387 24.5008 42.4737 24.6224 42.3521C24.7441 42.2304 24.9091 42.1621 25.0811 42.1621H62.054C62.2261 42.1621 62.3911 42.2304 62.5127 42.3521C62.6343 42.4737 62.7027 42.6387 62.7027 42.8108C62.7027 42.9828 62.6343 43.1478 62.5127 43.2694C62.3911 43.3911 62.2261 43.4594 62.054 43.4594Z" fill="#1E1E1E"/>
<path d="M22.4865 43.4595H21.1892C21.0171 43.4595 20.8522 43.3912 20.7305 43.2696C20.6089 43.1479 20.5405 42.9829 20.5405 42.8109V40.865C20.5405 40.6929 20.6089 40.5279 20.7305 40.4063C20.8522 40.2846 21.0171 40.2163 21.1892 40.2163C21.3612 40.2163 21.5262 40.2846 21.6478 40.4063C21.7695 40.5279 21.8378 40.6929 21.8378 40.865V42.1623H22.4865C22.6585 42.1623 22.8235 42.2306 22.9451 42.3522C23.0668 42.4739 23.1351 42.6389 23.1351 42.8109C23.1351 42.9829 23.0668 43.1479 22.9451 43.2696C22.8235 43.3912 22.6585 43.4595 22.4865 43.4595Z" fill="#1E1E1E"/>
<path d="M21.1892 38.2703C21.0171 38.2703 20.8522 38.202 20.7305 38.0804C20.6089 37.9587 20.5405 37.7937 20.5405 37.6217V1.94601C20.5405 1.77398 20.6089 1.60899 20.7305 1.48735C20.8522 1.3657 21.0171 1.29736 21.1892 1.29736C21.3612 1.29736 21.5262 1.3657 21.6478 1.48735C21.7695 1.60899 21.8378 1.77398 21.8378 1.94601V37.6217C21.8378 37.7937 21.7695 37.9587 21.6478 38.0804C21.5262 38.202 21.3612 38.2703 21.1892 38.2703Z" fill="#1E1E1E"/>
<path d="M58.8108 46.7026C58.6825 46.7025 58.5571 46.6645 58.4505 46.5932C58.3439 46.5219 58.2607 46.4206 58.2117 46.3021C58.1626 46.1836 58.1497 46.0532 58.1747 45.9274C58.1998 45.8016 58.2615 45.686 58.3522 45.5953L61.1369 42.8107L58.3522 40.026C58.2341 39.9037 58.1687 39.7398 58.1702 39.5698C58.1716 39.3997 58.2398 39.237 58.3601 39.1167C58.4804 38.9965 58.6431 38.9283 58.8131 38.9268C58.9832 38.9253 59.1471 38.9907 59.2694 39.1088L62.5126 42.3521C62.6342 42.4737 62.7026 42.6387 62.7026 42.8107C62.7026 42.9827 62.6342 43.1476 62.5126 43.2693L59.2694 46.5125C59.1478 46.6342 58.9828 46.7025 58.8108 46.7026Z" fill="#1E1E1E"/>
<path d="M24.4325 5.83777C24.2604 5.83773 24.0955 5.76936 23.9739 5.64771L21.1892 2.86306L18.4046 5.64771C18.2822 5.76587 18.1184 5.83125 17.9483 5.82977C17.7782 5.82829 17.6155 5.76007 17.4953 5.63981C17.375 5.51954 17.3068 5.35686 17.3053 5.18678C17.3038 5.01671 17.3692 4.85286 17.4874 4.73052L20.7306 1.48728C20.8523 1.36568 21.0172 1.29736 21.1892 1.29736C21.3612 1.29736 21.5262 1.36568 21.6478 1.48728L24.8911 4.73052C24.9817 4.82124 25.0435 4.9368 25.0685 5.06261C25.0935 5.18842 25.0807 5.31882 25.0316 5.43732C24.9825 5.55583 24.8994 5.65713 24.7928 5.7284C24.6861 5.79968 24.5607 5.83774 24.4325 5.83777Z" fill="#1E1E1E"/>
<path d="M52.973 43.4595C52.801 43.4595 52.636 43.3911 52.5143 43.2695C52.3927 43.1478 52.3243 42.9828 52.3243 42.8108V39.1213C52.3243 38.9493 52.3927 38.7843 52.5143 38.6626C52.636 38.541 52.801 38.4727 52.973 38.4727C53.145 38.4727 53.31 38.541 53.4317 38.6626C53.5533 38.7843 53.6216 38.9493 53.6216 39.1213V42.8108C53.6216 42.9828 53.5533 43.1478 53.4317 43.2695C53.31 43.3911 53.145 43.4595 52.973 43.4595Z" fill="#1E1E1E"/>
<path d="M47.9135 43.4593C47.7415 43.4593 47.5765 43.391 47.4549 43.2693C47.3332 43.1477 47.2649 42.9827 47.2649 42.8107V40.4184C47.2649 40.2464 47.3332 40.0814 47.4549 39.9598C47.5765 39.8381 47.7415 39.7698 47.9135 39.7698C48.0856 39.7698 48.2506 39.8381 48.3722 39.9598C48.4939 40.0814 48.5622 40.2464 48.5622 40.4184V42.8107C48.5622 42.9827 48.4939 43.1477 48.3722 43.2693C48.2506 43.391 48.0856 43.4593 47.9135 43.4593Z" fill="#1E1E1E"/>
<path d="M42.854 43.4595C42.682 43.4595 42.517 43.3911 42.3954 43.2695C42.2737 43.1478 42.2054 42.9828 42.2054 42.8108V39.1213C42.2054 38.9493 42.2737 38.7843 42.3954 38.6626C42.517 38.541 42.682 38.4727 42.854 38.4727C43.0261 38.4727 43.1911 38.541 43.3127 38.6626C43.4343 38.7843 43.5027 38.9493 43.5027 39.1213V42.8108C43.5027 42.9828 43.4343 43.1478 43.3127 43.2695C43.1911 43.3911 43.0261 43.4595 42.854 43.4595Z" fill="#1E1E1E"/>
<path d="M37.7946 43.4593C37.6225 43.4593 37.4576 43.391 37.3359 43.2693C37.2143 43.1477 37.1459 42.9827 37.1459 42.8107V40.4184C37.1459 40.2464 37.2143 40.0814 37.3359 39.9598C37.4576 39.8381 37.6225 39.7698 37.7946 39.7698C37.9666 39.7698 38.1316 39.8381 38.2532 39.9598C38.3749 40.0814 38.4432 40.2464 38.4432 40.4184V42.8107C38.4432 42.9827 38.3749 43.1477 38.2532 43.2693C38.1316 43.391 37.9666 43.4593 37.7946 43.4593Z" fill="#1E1E1E"/>
<path d="M32.7351 43.4595C32.5631 43.4595 32.3981 43.3911 32.2765 43.2695C32.1548 43.1478 32.0865 42.9828 32.0865 42.8108V39.1213C32.0865 38.9493 32.1548 38.7843 32.2765 38.6626C32.3981 38.541 32.5631 38.4727 32.7351 38.4727C32.9072 38.4727 33.0721 38.541 33.1938 38.6626C33.3154 38.7843 33.3838 38.9493 33.3838 39.1213V42.8108C33.3838 42.9828 33.3154 43.1478 33.1938 43.2695C33.0721 43.3911 32.9072 43.4595 32.7351 43.4595Z" fill="#1E1E1E"/>
<path d="M27.6757 43.4593C27.5037 43.4593 27.3387 43.391 27.217 43.2693C27.0954 43.1477 27.027 42.9827 27.027 42.8107V40.4184C27.027 40.2464 27.0954 40.0814 27.217 39.9598C27.3387 39.8381 27.5037 39.7698 27.6757 39.7698C27.8477 39.7698 28.0127 39.8381 28.1343 39.9598C28.256 40.0814 28.3243 40.2464 28.3243 40.4184V42.8107C28.3243 42.9827 28.256 43.1477 28.1343 43.2693C28.0127 43.391 27.8477 43.4593 27.6757 43.4593Z" fill="#1E1E1E"/>
<path d="M24.8767 10.7028H21.1892C21.0171 10.7028 20.8522 10.6345 20.7305 10.5128C20.6089 10.3912 20.5405 10.2262 20.5405 10.0542C20.5405 9.88213 20.6089 9.71715 20.7305 9.5955C20.8522 9.47386 21.0171 9.40552 21.1892 9.40552H24.8787C25.0507 9.40552 25.2157 9.47386 25.3374 9.5955C25.459 9.71715 25.5273 9.88213 25.5273 10.0542C25.5273 10.2262 25.459 10.3912 25.3374 10.5128C25.2157 10.6345 25.0507 10.7028 24.8787 10.7028H24.8767Z" fill="#1E1E1E"/>
<path d="M23.5794 15.7621H21.1892C21.0171 15.7621 20.8522 15.6938 20.7305 15.5722C20.6089 15.4505 20.5405 15.2855 20.5405 15.1135C20.5405 14.9415 20.6089 14.7765 20.7305 14.6548C20.8522 14.5332 21.0171 14.4648 21.1892 14.4648H23.5814C23.7534 14.4648 23.9184 14.5332 24.0401 14.6548C24.1617 14.7765 24.23 14.9415 24.23 15.1135C24.23 15.2855 24.1617 15.4505 24.0401 15.5722C23.9184 15.6938 23.7534 15.7621 23.5814 15.7621H23.5794Z" fill="#1E1E1E"/>
<path d="M24.8767 20.8215H21.1892C21.0171 20.8215 20.8522 20.7531 20.7305 20.6315C20.6089 20.5098 20.5405 20.3448 20.5405 20.1728C20.5405 20.0008 20.6089 19.8358 20.7305 19.7142C20.8522 19.5925 21.0171 19.5242 21.1892 19.5242H24.8787C25.0507 19.5242 25.2157 19.5925 25.3374 19.7142C25.459 19.8358 25.5273 20.0008 25.5273 20.1728C25.5273 20.3448 25.459 20.5098 25.3374 20.6315C25.2157 20.7531 25.0507 20.8215 24.8787 20.8215H24.8767Z" fill="#1E1E1E"/>
<path d="M23.5794 25.881H21.1892C21.0171 25.881 20.8522 25.8127 20.7305 25.6911C20.6089 25.5694 20.5405 25.4044 20.5405 25.2324C20.5405 25.0604 20.6089 24.8954 20.7305 24.7737C20.8522 24.6521 21.0171 24.5837 21.1892 24.5837H23.5814C23.7534 24.5837 23.9184 24.6521 24.0401 24.7737C24.1617 24.8954 24.23 25.0604 24.23 25.2324C24.23 25.4044 24.1617 25.5694 24.0401 25.6911C23.9184 25.8127 23.7534 25.881 23.5814 25.881H23.5794Z" fill="#1E1E1E"/>
<path d="M24.8767 30.9406H21.1892C21.0171 30.9406 20.8522 30.8723 20.7305 30.7506C20.6089 30.629 20.5405 30.464 20.5405 30.292C20.5405 30.1199 20.6089 29.9549 20.7305 29.8333C20.8522 29.7117 21.0171 29.6433 21.1892 29.6433H24.8787C25.0507 29.6433 25.2157 29.7117 25.3374 29.8333C25.459 29.9549 25.5273 30.1199 25.5273 30.292C25.5273 30.464 25.459 30.629 25.3374 30.7506C25.2157 30.8723 25.0507 30.9406 24.8787 30.9406H24.8767Z" fill="#1E1E1E"/>
<path d="M23.5794 35.9999H21.1892C21.0171 35.9999 20.8522 35.9316 20.7305 35.81C20.6089 35.6883 20.5405 35.5233 20.5405 35.3513C20.5405 35.1793 20.6089 35.0143 20.7305 34.8926C20.8522 34.771 21.0171 34.7026 21.1892 34.7026H23.5814C23.7534 34.7026 23.9184 34.771 24.0401 34.8926C24.1617 35.0143 24.23 35.1793 24.23 35.3513C24.23 35.5233 24.1617 35.6883 24.0401 35.81C23.9184 35.9316 23.7534 35.9999 23.5814 35.9999H23.5794Z" fill="#1E1E1E"/>
<path d="M54.0497 21.5999C53.3647 21.5999 52.695 21.3968 52.1254 21.0162C51.5558 20.6356 51.1118 20.0947 50.8497 19.4618C50.5875 18.8289 50.5188 18.1325 50.6524 17.4606C50.786 16.7887 51.1159 16.1716 51.6002 15.6871C52.0846 15.2027 52.7017 14.8727 53.3736 14.739C54.0454 14.6053 54.7419 14.6738 55.3748 14.9358C56.0077 15.1979 56.5487 15.6418 56.9294 16.2113C57.3101 16.7808 57.5134 17.4505 57.5135 18.1355C57.5126 19.0539 57.1475 19.9345 56.4981 20.584C55.8487 21.2335 54.9682 21.5989 54.0497 21.5999ZM54.0497 15.9697C53.6212 15.9697 53.2023 16.0967 52.846 16.3348C52.4897 16.5729 52.212 16.9113 52.0481 17.3072C51.8841 17.7031 51.8413 18.1388 51.9249 18.559C52.0086 18.9793 52.215 19.3653 52.518 19.6683C52.8211 19.9713 53.2072 20.1776 53.6275 20.2611C54.0478 20.3446 54.4834 20.3016 54.8792 20.1375C55.2751 19.9735 55.6134 19.6957 55.8514 19.3393C56.0894 18.9829 56.2163 18.564 56.2162 18.1355C56.2157 17.5611 55.9873 17.0103 55.5811 16.6041C55.1749 16.1979 54.6241 15.9695 54.0497 15.969V15.9697Z" fill="#1E1E1E"/>
<path d="M47.3044 30.463C46.6194 30.463 45.9497 30.2598 45.3801 29.8792C44.8104 29.4986 44.3665 28.9576 44.1043 28.3247C43.8421 27.6918 43.7735 26.9953 43.9072 26.3234C44.0408 25.6515 44.3707 25.0343 44.8552 24.5499C45.3396 24.0655 45.9568 23.7356 46.6287 23.602C47.3006 23.4683 47.997 23.5369 48.63 23.7991C49.2629 24.0612 49.8039 24.5052 50.1845 25.0748C50.5651 25.6444 50.7682 26.3141 50.7682 26.9992C50.7672 27.9175 50.4019 28.798 49.7526 29.4473C49.1032 30.0967 48.2228 30.4619 47.3044 30.463ZM47.3044 24.8327C46.8759 24.8327 46.4571 24.9598 46.1008 25.1978C45.7445 25.4359 45.4668 25.7742 45.3029 26.1701C45.1389 26.566 45.096 27.0016 45.1796 27.4218C45.2632 27.8421 45.4695 28.2281 45.7725 28.5311C46.0755 28.8341 46.4615 29.0404 46.8818 29.124C47.302 29.2076 47.7376 29.1647 48.1335 29.0008C48.5294 28.8368 48.8677 28.5591 49.1058 28.2028C49.3439 27.8465 49.4709 27.4277 49.4709 26.9992C49.4704 26.4248 49.242 25.874 48.8358 25.4678C48.4296 25.0616 47.8789 24.8332 47.3044 24.8327Z" fill="#1E1E1E"/>
<path d="M39.8307 21.5999C39.1457 21.5999 38.476 21.3968 37.9064 21.0162C37.3367 20.6356 36.8928 20.0946 36.6306 19.4617C36.3684 18.8288 36.2998 18.1323 36.4335 17.4604C36.5672 16.7885 36.897 16.1713 37.3815 15.6869C37.8659 15.2025 38.4831 14.8726 39.155 14.7389C39.8269 14.6053 40.5233 14.6739 41.1563 14.936C41.7892 15.1982 42.3302 15.6422 42.7108 16.2118C43.0914 16.7814 43.2945 17.4511 43.2945 18.1361C43.2935 19.0545 42.9282 19.9349 42.2789 20.5843C41.6295 21.2336 40.7491 21.5989 39.8307 21.5999ZM39.8307 15.9697C39.4022 15.9697 38.9834 16.0967 38.6271 16.3348C38.2708 16.5728 37.9931 16.9112 37.8292 17.3071C37.6652 17.7029 37.6223 18.1385 37.7059 18.5588C37.7895 18.9791 37.9958 19.3651 38.2988 19.6681C38.6018 19.9711 38.9878 20.1774 39.4081 20.261C39.8283 20.3446 40.2639 20.3017 40.6598 20.1377C41.0557 19.9737 41.394 19.6961 41.6321 19.3398C41.8702 18.9835 41.9972 18.5646 41.9972 18.1361C41.9969 17.5616 41.7685 17.0107 41.3623 16.6044C40.9561 16.198 40.4053 15.9695 39.8307 15.969V15.9697Z" fill="#1E1E1E"/>
<path d="M33.0854 30.463C32.4004 30.463 31.7307 30.2598 31.1611 29.8792C30.5914 29.4986 30.1475 28.9576 29.8853 28.3247C29.6231 27.6918 29.5545 26.9953 29.6882 26.3234C29.8219 25.6515 30.1517 25.0343 30.6362 24.5499C31.1206 24.0655 31.7378 23.7356 32.4097 23.602C33.0816 23.4683 33.778 23.5369 34.411 23.7991C35.0439 24.0612 35.5849 24.5052 35.9655 25.0748C36.3461 25.6444 36.5492 26.3141 36.5492 26.9992C36.548 27.9175 36.1827 28.7978 35.5334 29.4471C34.884 30.0964 34.0037 30.4618 33.0854 30.463ZM33.0854 24.8327C32.6569 24.8327 32.2381 24.9598 31.8818 25.1978C31.5255 25.4359 31.2478 25.7742 31.0839 26.1701C30.9199 26.566 30.877 27.0016 30.9606 27.4218C31.0442 27.8421 31.2505 28.2281 31.5535 28.5311C31.8565 28.8341 32.2425 29.0404 32.6628 29.124C33.083 29.2076 33.5186 29.1647 33.9145 29.0008C34.3104 28.8368 34.6487 28.5591 34.8868 28.2028C35.1249 27.8465 35.2519 27.4277 35.2519 26.9992C35.2514 26.4248 35.023 25.874 34.6168 25.4678C34.2106 25.0616 33.6599 24.8332 33.0854 24.8327Z" fill="#1E1E1E"/>
<path d="M49.0551 25.4458C48.9352 25.4454 48.8178 25.4117 48.7158 25.3485C48.6139 25.2854 48.5315 25.1952 48.4777 25.088C48.424 24.9808 48.401 24.8608 48.4113 24.7414C48.4216 24.6219 48.4648 24.5076 48.5362 24.4112L51.8125 19.9784C51.862 19.907 51.9253 19.8462 51.9987 19.7998C52.0721 19.7533 52.1541 19.7221 52.2398 19.7079C52.3255 19.6937 52.4132 19.6969 52.4977 19.7173C52.5821 19.7376 52.6616 19.7748 52.7315 19.8264C52.8013 19.8781 52.86 19.9433 52.9042 20.0181C52.9484 20.0929 52.9771 20.1758 52.9886 20.2619C53.0001 20.348 52.9942 20.4355 52.9712 20.5193C52.9483 20.6031 52.9087 20.6814 52.8549 20.7496L49.5773 25.1805C49.5171 25.2626 49.4385 25.3294 49.3478 25.3755C49.2571 25.4216 49.1569 25.4457 49.0551 25.4458Z" fill="#1E1E1E"/>
<path d="M45.5537 25.4459C45.4631 25.4458 45.3735 25.4267 45.2907 25.3898C45.2079 25.3529 45.1338 25.2991 45.0731 25.2319L41.0644 20.8009C41.0036 20.7385 40.956 20.6644 40.9244 20.5831C40.8929 20.5018 40.878 20.415 40.8808 20.3279C40.8835 20.2408 40.9038 20.1551 40.9404 20.0759C40.977 19.9968 41.0292 19.9259 41.0939 19.8674C41.1585 19.8089 41.2343 19.764 41.3167 19.7355C41.3991 19.7069 41.4863 19.6953 41.5733 19.7012C41.6603 19.7072 41.7452 19.7306 41.8229 19.7701C41.9007 19.8096 41.9696 19.8643 42.0257 19.9311L46.0324 24.362C46.1167 24.4551 46.1721 24.5707 46.1919 24.6947C46.2118 24.8187 46.1952 24.9457 46.1443 25.0605C46.0933 25.1753 46.0102 25.2728 45.9049 25.3412C45.7996 25.4096 45.6767 25.446 45.5511 25.4459H45.5537Z" fill="#1E1E1E"/>
<path d="M34.3892 25.135C34.2636 25.1351 34.1407 25.0987 34.0354 25.0303C33.9301 24.9619 33.847 24.8644 33.796 24.7496C33.745 24.6348 33.7285 24.5078 33.7483 24.3838C33.7682 24.2598 33.8236 24.1442 33.9079 24.0511L37.6357 19.9309C37.6921 19.8653 37.7611 19.8117 37.8386 19.7732C37.916 19.7346 38.0004 19.712 38.0868 19.7066C38.1732 19.7012 38.2597 19.7131 38.3414 19.7417C38.4231 19.7702 38.4982 19.8148 38.5624 19.8729C38.6266 19.9309 38.6785 20.0012 38.7151 20.0796C38.7517 20.158 38.7723 20.2429 38.7755 20.3294C38.7788 20.4158 38.7648 20.5021 38.7342 20.583C38.7036 20.664 38.6572 20.738 38.5976 20.8007L34.8698 24.921C34.8093 24.9884 34.7351 25.0424 34.6523 25.0792C34.5695 25.1161 34.4798 25.1351 34.3892 25.135Z" fill="#1E1E1E"/>
<circle cx="25.5" cy="37.5" r="7.5" fill="#2E2E2E"/>
<g filter="url(#filter0_d)">
<path d="M35.6875 37.5C35.6875 32.1875 31.3125 27.8125 26 27.8125C20.6484 27.8125 16.3125 32.1875 16.3125 37.5C16.3125 42.8516 20.6484 47.1875 26 47.1875C31.3125 47.1875 35.6875 42.8516 35.6875 37.5ZM24.8672 42.6562C24.6328 42.8906 24.2031 42.8906 23.9688 42.6562L19.9062 38.5938C19.6719 38.3594 19.6719 37.9297 19.9062 37.6953L20.8047 36.8359C21.0391 36.5625 21.4297 36.5625 21.6641 36.8359L24.4375 39.5703L30.2969 33.7109C30.5312 33.4375 30.9219 33.4375 31.1562 33.7109L32.0547 34.5703C32.2891 34.8047 32.2891 35.2344 32.0547 35.4688L24.8672 42.6562Z" fill="url(#paint0_linear)"/>
</g>
<defs>
<filter id="filter0_d" x="0.3125" y="16.8125" width="51.375" height="51.375" filterUnits="userSpaceOnUse" color-interpolation-filters="sRGB">
<feFlood flood-opacity="0" result="BackgroundImageFix"/>
<feColorMatrix in="SourceAlpha" type="matrix" values="0 0 0 0 0 0 0 0 0 0 0 0 0 0 0 0 0 0 127 0"/>
<feOffset dy="5"/>
<feGaussianBlur stdDeviation="8"/>
<feColorMatrix type="matrix" values="0 0 0 0 1 0 0 0 0 0.854902 0 0 0 0 0.258824 0 0 0 0.6 0"/>
<feBlend mode="normal" in2="BackgroundImageFix" result="effect1_dropShadow"/>
<feBlend mode="normal" in="SourceGraphic" in2="effect1_dropShadow" result="shape"/>
</filter>
<linearGradient id="paint0_linear" x1="26" y1="22" x2="26" y2="52" gradientUnits="userSpaceOnUse">
<stop stop-color="#FFDA42"/>
<stop offset="1" stop-color="#FFDA42"/>
</linearGradient>
</defs>
</svg>
