<svg width="64" height="69" viewBox="0 0 64 69" fill="none" xmlns="http://www.w3.org/2000/svg">
<path d="M30.1179 34.5438C30.0344 34.5439 29.9518 34.5274 29.8747 34.4953C29.7977 34.4633 29.7277 34.4163 29.669 34.357C29.2026 33.8906 28.7563 33.4314 28.323 32.965C28.21 32.8384 28.151 32.6725 28.1589 32.5029C28.1667 32.3334 28.2408 32.1736 28.365 32.058C28.4893 31.9424 28.654 31.8801 28.8236 31.8845C28.9933 31.8889 29.1545 31.9596 29.2727 32.0815C29.6956 32.5356 30.1315 32.9851 30.57 33.4268C30.6621 33.5174 30.7253 33.6332 30.7515 33.7597C30.7777 33.8863 30.7657 34.0177 30.7171 34.1374C30.6684 34.2571 30.5853 34.3596 30.4783 34.432C30.3712 34.5043 30.2451 34.5433 30.1159 34.5438H30.1179Z" fill="#1E1E1E"/>
<path d="M52.3827 46.7028C48.4499 46.7028 43.4488 44.836 38.3005 41.4487C38.2278 41.4026 38.1651 41.3424 38.1159 41.2718C38.0667 41.2011 38.0321 41.1214 38.014 41.0372C37.996 40.953 37.9949 40.8661 38.0108 40.7815C38.0266 40.6969 38.0592 40.6163 38.1066 40.5444C38.1539 40.4725 38.2151 40.4107 38.2866 40.3627C38.358 40.3147 38.4383 40.2814 38.5228 40.2648C38.6073 40.2481 38.6942 40.2485 38.7785 40.2658C38.8629 40.283 38.9429 40.3169 39.014 40.3655C43.9528 43.6146 48.7009 45.4055 52.3827 45.4055C54.4551 45.4055 56.0728 44.8386 57.1911 43.719L61.3619 39.5417C61.3752 39.5299 61.3859 39.5154 61.3934 39.4992C61.4009 39.483 61.405 39.4655 61.4054 39.4476C61.4055 39.4305 61.4021 39.4136 61.3954 39.3979C61.3887 39.3822 61.3788 39.368 61.3664 39.3562L52.4624 30.4522C52.4504 30.4386 52.4356 30.4278 52.419 30.4203C52.4025 30.4128 52.3846 30.4089 52.3664 30.4087C52.3495 30.4086 52.3327 30.4119 52.3171 30.4185C52.3015 30.4251 52.2874 30.4348 52.2756 30.447L49.0661 33.6565C49.0459 33.677 49.0242 33.6961 49.0012 33.7136C47.7215 34.9337 45.5569 35.0582 42.8968 34.0632C39.9911 32.865 37.3663 31.0758 35.1889 28.8092C32.9223 26.6318 31.133 24.007 29.9349 21.1013C28.9392 18.4418 29.065 16.2747 30.2864 14.9949C30.3032 14.9719 30.3216 14.9502 30.3416 14.93L33.5459 11.7257C33.5595 11.7136 33.5703 11.6988 33.5778 11.6823C33.5853 11.6658 33.5892 11.6479 33.5894 11.6297C33.5895 11.6128 33.5862 11.5959 33.5796 11.5803C33.5731 11.5647 33.5633 11.5506 33.5511 11.5389L24.6484 2.63813C24.5757 2.56418 24.5238 2.57327 24.4616 2.63294L20.281 6.81089C16.6032 10.4855 19.1465 19.6807 26.3271 28.6742C26.3829 28.7405 26.4248 28.8172 26.4505 28.8999C26.4761 28.9826 26.4849 29.0696 26.4764 29.1558C26.4679 29.2419 26.4422 29.3255 26.4009 29.4016C26.3596 29.4777 26.3035 29.5448 26.2358 29.5988C26.1682 29.6529 26.0904 29.6928 26.007 29.7163C25.9237 29.7398 25.8365 29.7464 25.7506 29.7357C25.6647 29.725 25.5818 29.6972 25.5068 29.6539C25.4318 29.6106 25.3662 29.5528 25.3139 29.4838C17.5911 19.8111 15.1437 10.1099 19.3619 5.89175L23.5392 1.72094C23.671 1.58618 23.8286 1.47926 24.0025 1.4065C24.1764 1.33375 24.3632 1.29664 24.5517 1.29737C24.7414 1.29675 24.9293 1.33434 25.1042 1.40789C25.279 1.48144 25.4373 1.58945 25.5695 1.72548L34.465 10.6204C34.5996 10.7533 34.7064 10.9116 34.7791 11.0862C34.8518 11.2608 34.889 11.4481 34.8886 11.6373C34.8881 11.8264 34.8499 12.0135 34.7763 12.1878C34.7027 12.362 34.5951 12.5198 34.4598 12.652L31.3081 15.8005C31.2928 15.8207 31.2761 15.8398 31.2581 15.8576C30.3792 16.7372 30.339 18.4833 31.1491 20.6485C32.2831 23.3801 33.9717 25.8466 36.1081 27.892C38.1544 30.0272 40.6215 31.7144 43.3535 32.847C45.5187 33.6572 47.2648 33.6176 48.1444 32.738C48.1626 32.7194 48.1821 32.702 48.2028 32.6861L51.3552 29.5337C51.4872 29.399 51.6449 29.2921 51.8189 29.2193C51.9929 29.1466 52.1798 29.1095 52.3684 29.1101C52.5581 29.1096 52.746 29.1473 52.9209 29.221C53.0957 29.2947 53.2539 29.4028 53.3861 29.5389L62.2791 38.4345C62.4137 38.5673 62.5205 38.7257 62.5932 38.9003C62.6659 39.0749 62.7031 39.2622 62.7026 39.4513C62.7021 39.6405 62.664 39.8276 62.5904 40.0018C62.5167 40.176 62.4092 40.3338 62.2739 40.466L58.1096 44.6362C56.7383 46.0081 54.8118 46.7028 52.3827 46.7028Z" fill="#1E1E1E"/>
<path d="M34.9405 38.8476C34.7948 38.8479 34.6532 38.7988 34.539 38.7081C34.0402 38.3144 33.542 37.9019 33.0471 37.4822C32.9814 37.4275 32.9271 37.3604 32.8873 37.2847C32.8476 37.2089 32.8232 37.1261 32.8157 37.0409C32.8081 36.9557 32.8174 36.8699 32.8431 36.7883C32.8689 36.7067 32.9105 36.6311 32.9655 36.5656C33.0206 36.5002 33.0881 36.4463 33.1641 36.4071C33.2401 36.3678 33.323 36.344 33.4083 36.3369C33.4935 36.3299 33.5793 36.3397 33.6607 36.366C33.7421 36.3922 33.8175 36.4343 33.8826 36.4898C34.3704 36.9004 34.8556 37.3051 35.3459 37.6898C35.4518 37.7733 35.5289 37.8877 35.5667 38.0171C35.6045 38.1465 35.6011 38.2844 35.5568 38.4118C35.5126 38.5391 35.4298 38.6495 35.3199 38.7276C35.2101 38.8057 35.0786 38.8477 34.9438 38.8476H34.9405Z" fill="#1E1E1E"/>
<path d="M30.8048 16.0423C30.6328 16.0423 30.4678 15.9739 30.3462 15.8523L20.333 5.83776C20.2687 5.7785 20.217 5.70685 20.1811 5.62711C20.1452 5.54738 20.1258 5.46121 20.1241 5.37378C20.1223 5.28636 20.1383 5.19948 20.171 5.11837C20.2037 5.03727 20.2524 4.96361 20.3143 4.90182C20.3761 4.84003 20.4499 4.79139 20.531 4.75882C20.6122 4.72626 20.6991 4.71043 20.7865 4.71231C20.8739 4.71418 20.9601 4.73371 21.0398 4.76972C21.1194 4.80574 21.191 4.85749 21.2502 4.92187L31.2634 14.9351C31.3541 15.0258 31.4158 15.1413 31.4408 15.2672C31.4658 15.393 31.453 15.5234 31.4039 15.6419C31.3548 15.7604 31.2717 15.8617 31.1651 15.9329C31.0584 16.0042 30.933 16.0423 30.8048 16.0423Z" fill="#1E1E1E"/>
<path d="M58.6194 43.857C58.4479 43.8566 58.2834 43.7882 58.1621 43.6669L48.1477 33.6537C48.0295 33.5314 47.9641 33.3675 47.9656 33.1975C47.9671 33.0274 48.0353 32.8647 48.1556 32.7444C48.2758 32.6242 48.4385 32.5559 48.6086 32.5545C48.7787 32.553 48.9425 32.6184 49.0648 32.7365L59.078 42.7497C59.1687 42.8404 59.2305 42.956 59.2555 43.0818C59.2805 43.2076 59.2677 43.338 59.2186 43.4565C59.1695 43.575 59.0864 43.6763 58.9797 43.7476C58.8731 43.8189 58.7477 43.8569 58.6194 43.857Z" fill="#1E1E1E"/>
<path d="M59.4594 25.2972C59.2874 25.2972 59.1224 25.2289 59.0008 25.1073C58.8791 24.9856 58.8108 24.8206 58.8108 24.6486C58.805 19.4894 56.7529 14.5432 53.1048 10.8951C49.4567 7.24704 44.5105 5.19498 39.3513 5.18914C39.1793 5.18914 39.0143 5.1208 38.8927 4.99916C38.771 4.87751 38.7027 4.71253 38.7027 4.54049C38.7027 4.36846 38.771 4.20348 38.8927 4.08183C39.0143 3.96019 39.1793 3.89185 39.3513 3.89185C44.8545 3.89803 50.1304 6.08688 54.0218 9.97818C57.9131 13.8695 60.1019 19.1455 60.1081 24.6486C60.1081 24.8206 60.0397 24.9856 59.9181 25.1073C59.7965 25.2289 59.6315 25.2972 59.4594 25.2972Z" fill="#1E1E1E"/>
<path d="M52.9541 25.2973C52.7821 25.2973 52.6171 25.229 52.4955 25.1073C52.3738 24.9857 52.3055 24.8207 52.3055 24.6487C52.3015 21.2142 50.9355 17.9216 48.507 15.4931C46.0784 13.0645 42.7858 11.6985 39.3513 11.6945C39.1793 11.6945 39.0143 11.6262 38.8927 11.5045C38.771 11.3829 38.7027 11.2179 38.7027 11.0459C38.7027 10.8738 38.771 10.7088 38.8927 10.5872C39.0143 10.4656 39.1793 10.3972 39.3513 10.3972C43.1295 10.4022 46.7516 11.9053 49.4231 14.5769C52.0947 17.2485 53.5978 20.8705 53.6028 24.6487C53.6028 24.8207 53.5345 24.9857 53.4128 25.1073C53.2912 25.229 53.1262 25.2973 52.9541 25.2973Z" fill="#1E1E1E"/>
<path d="M46.4482 25.2973C46.2762 25.2973 46.1112 25.2289 45.9895 25.1073C45.8679 24.9856 45.7996 24.8206 45.7996 24.6486C45.7977 22.939 45.1177 21.3 43.9088 20.0911C42.7 18.8822 41.0609 18.2023 39.3513 18.2004C39.1793 18.2004 39.0143 18.132 38.8927 18.0104C38.771 17.8887 38.7027 17.7238 38.7027 17.5517C38.7027 17.3797 38.771 17.2147 38.8927 17.0931C39.0143 16.9714 39.1793 16.9031 39.3513 16.9031C41.4048 16.9055 43.3735 17.7223 44.8256 19.1743C46.2776 20.6264 47.0944 22.5951 47.0969 24.6486C47.0969 24.8206 47.0285 24.9856 46.9069 25.1073C46.7852 25.2289 46.6202 25.2973 46.4482 25.2973Z" fill="#1E1E1E"/>
<circle cx="25.5" cy="37.5" r="7.5" fill="#2E2E2E"/>
<g filter="url(#filter0_d)">
<path d="M35.6875 37.5C35.6875 32.1875 31.3125 27.8125 26 27.8125C20.6484 27.8125 16.3125 32.1875 16.3125 37.5C16.3125 42.8516 20.6484 47.1875 26 47.1875C31.3125 47.1875 35.6875 42.8516 35.6875 37.5ZM24.8672 42.6562C24.6328 42.8906 24.2031 42.8906 23.9688 42.6562L19.9062 38.5938C19.6719 38.3594 19.6719 37.9297 19.9062 37.6953L20.8047 36.8359C21.0391 36.5625 21.4297 36.5625 21.6641 36.8359L24.4375 39.5703L30.2969 33.7109C30.5312 33.4375 30.9219 33.4375 31.1562 33.7109L32.0547 34.5703C32.2891 34.8047 32.2891 35.2344 32.0547 35.4688L24.8672 42.6562Z" fill="url(#paint0_linear)"/>
</g>
<defs>
<filter id="filter0_d" x="0.3125" y="16.8125" width="51.375" height="51.375" filterUnits="userSpaceOnUse" color-interpolation-filters="sRGB">
<feFlood flood-opacity="0" result="BackgroundImageFix"/>
<feColorMatrix in="SourceAlpha" type="matrix" values="0 0 0 0 0 0 0 0 0 0 0 0 0 0 0 0 0 0 127 0"/>
<feOffset dy="5"/>
<feGaussianBlur stdDeviation="8"/>
<feColorMatrix type="matrix" values="0 0 0 0 1 0 0 0 0 0.854902 0 0 0 0 0.258824 0 0 0 0.6 0"/>
<feBlend mode="normal" in2="BackgroundImageFix" result="effect1_dropShadow"/>
<feBlend mode="normal" in="SourceGraphic" in2="effect1_dropShadow" result="shape"/>
</filter>
<linearGradient id="paint0_linear" x1="26" y1="22" x2="26" y2="52" gradientUnits="userSpaceOnUse">
<stop stop-color="#FFDA42"/>
<stop offset="1" stop-color="#FFDA42"/>
</linearGradient>
</defs>
</svg>
