<svg width="64" height="68" viewBox="0 0 64 68" fill="none" xmlns="http://www.w3.org/2000/svg">
<path d="M52.6843 42.6312H23.2461C23.074 42.6312 22.909 42.5629 22.7874 42.4412C22.6658 42.3196 22.5974 42.1546 22.5974 41.9826V11.3663C22.5974 11.1943 22.6658 11.0294 22.7875 10.9077L32.2071 1.48742C32.3288 1.36576 32.4937 1.2974 32.6657 1.29736H52.6843C52.8564 1.29736 53.0214 1.3657 53.143 1.48735C53.2646 1.60899 53.333 1.77398 53.333 1.94601V41.9826C53.333 42.1546 53.2646 42.3196 53.143 42.4412C53.0214 42.5629 52.8564 42.6312 52.6843 42.6312ZM23.8947 41.3339H52.0357V2.59466H32.9343L23.8947 11.6349V41.3339Z" fill="#1E1E1E"/>
<path d="M56.7546 26.5556C56.5826 26.5556 56.4176 26.4873 56.2959 26.3657C56.1743 26.244 56.106 26.079 56.106 25.907V24C56.106 23.8279 56.1743 23.6629 56.2959 23.5413C56.4176 23.4197 56.5826 23.3513 56.7546 23.3513C56.9266 23.3513 57.0916 23.4197 57.2133 23.5413C57.3349 23.6629 57.4033 23.8279 57.4033 24V25.907C57.4033 26.079 57.3349 26.244 57.2133 26.3657C57.0916 26.4873 56.9266 26.5556 56.7546 26.5556Z" fill="#1E1E1E"/>
<path d="M56.7546 46.7028H27.3189C27.1469 46.7028 26.9819 46.6345 26.8603 46.5128C26.7386 46.3912 26.6703 46.2262 26.6703 46.0542V41.9806C26.6703 41.8086 26.7386 41.6436 26.8603 41.522C26.9819 41.4003 27.1469 41.332 27.3189 41.332C27.491 41.332 27.656 41.4003 27.7776 41.522C27.8992 41.6436 27.9676 41.8086 27.9676 41.9806V45.4055H56.106V36.8952C56.106 36.7232 56.1743 36.5582 56.2959 36.4366C56.4176 36.3149 56.5826 36.2466 56.7546 36.2466C56.9266 36.2466 57.0916 36.3149 57.2133 36.4366C57.3349 36.5582 57.4033 36.7232 57.4033 36.8952V46.0542C57.4033 46.2262 57.3349 46.3912 57.2133 46.5128C57.0916 46.6345 56.9266 46.7028 56.7546 46.7028Z" fill="#1E1E1E"/>
<path d="M56.7546 33.0032C56.5826 33.0032 56.4176 32.9348 56.2959 32.8132C56.1743 32.6915 56.106 32.5265 56.106 32.3545V30.4475C56.106 30.2754 56.1743 30.1105 56.2959 29.9888C56.4176 29.8672 56.5826 29.7988 56.7546 29.7988C56.9266 29.7988 57.0916 29.8672 57.2133 29.9888C57.3349 30.1105 57.4033 30.2754 57.4033 30.4475V32.3545C57.4033 32.5265 57.3349 32.6915 57.2133 32.8132C57.0916 32.9348 56.9266 33.0032 56.7546 33.0032Z" fill="#1E1E1E"/>
<path d="M56.7546 20.1081C56.5826 20.1081 56.4176 20.0398 56.2959 19.9182C56.1743 19.7965 56.106 19.6315 56.106 19.4595V6.66815H52.6876C52.6024 6.66857 52.518 6.65222 52.4391 6.62001C52.3602 6.58781 52.2885 6.54039 52.228 6.48046C52.1674 6.42052 52.1193 6.34926 52.0863 6.27072C52.0533 6.19219 52.0361 6.10792 52.0357 6.02274C52.0353 5.93756 52.0516 5.85313 52.0838 5.77427C52.116 5.69541 52.1634 5.62366 52.2234 5.56313C52.2833 5.50259 52.3546 5.45446 52.4331 5.42147C52.5116 5.38848 52.5959 5.37128 52.6811 5.37085H56.7546C56.9266 5.37085 57.0916 5.43919 57.2133 5.56083C57.3349 5.68248 57.4033 5.84747 57.4033 6.0195V19.4595C57.4033 19.6315 57.3349 19.7965 57.2133 19.9182C57.0916 20.0398 56.9266 20.1081 56.7546 20.1081Z" fill="#1E1E1E"/>
<path d="M32.6657 12.015H23.2461C23.074 12.015 22.909 11.9466 22.7874 11.825C22.6658 11.7034 22.5974 11.5384 22.5974 11.3663C22.5974 11.1943 22.6658 11.0293 22.7874 10.9077C22.909 10.786 23.074 10.7177 23.2461 10.7177H32.0171V1.94601C32.0171 1.77398 32.0854 1.60899 32.2071 1.48735C32.3287 1.3657 32.4937 1.29736 32.6657 1.29736C32.8378 1.29736 33.0028 1.3657 33.1244 1.48735C33.246 1.60899 33.3144 1.77398 33.3144 1.94601V11.3663C33.3144 11.5384 33.246 11.7034 33.1244 11.825C33.0028 11.9466 32.8378 12.015 32.6657 12.015Z" fill="#1E1E1E"/>
<path d="M47.9745 18.4916H27.9559C27.7839 18.4916 27.6189 18.4233 27.4972 18.3016C27.3756 18.18 27.3073 18.015 27.3073 17.843C27.3073 17.6709 27.3756 17.506 27.4972 17.3843C27.6189 17.2627 27.7839 17.1943 27.9559 17.1943H47.9745C48.1465 17.1943 48.3115 17.2627 48.4332 17.3843C48.5548 17.506 48.6232 17.6709 48.6232 17.843C48.6232 18.015 48.5548 18.18 48.4332 18.3016C48.3115 18.4233 48.1465 18.4916 47.9745 18.4916Z" fill="#1E1E1E"/>
<path d="M47.9745 24.3788H27.9559C27.7839 24.3788 27.6189 24.3105 27.4972 24.1889C27.3756 24.0672 27.3073 23.9022 27.3073 23.7302C27.3073 23.5582 27.3756 23.3932 27.4972 23.2715C27.6189 23.1499 27.7839 23.0815 27.9559 23.0815H47.9745C48.1465 23.0815 48.3115 23.1499 48.4332 23.2715C48.5548 23.3932 48.6232 23.5582 48.6232 23.7302C48.6232 23.9022 48.5548 24.0672 48.4332 24.1889C48.3115 24.3105 48.1465 24.3788 47.9745 24.3788Z" fill="#1E1E1E"/>
<path d="M47.9745 30.2673H27.9559C27.7839 30.2673 27.6189 30.1989 27.4972 30.0773C27.3756 29.9556 27.3073 29.7907 27.3073 29.6186C27.3073 29.4466 27.3756 29.2816 27.4972 29.16C27.6189 29.0383 27.7839 28.97 27.9559 28.97H47.9745C48.1465 28.97 48.3115 29.0383 48.4332 29.16C48.5548 29.2816 48.6232 29.4466 48.6232 29.6186C48.6232 29.7907 48.5548 29.9556 48.4332 30.0773C48.3115 30.1989 48.1465 30.2673 47.9745 30.2673Z" fill="#1E1E1E"/>
<path d="M47.9745 36.1545H27.9559C27.7839 36.1545 27.6189 36.0861 27.4972 35.9645C27.3756 35.8428 27.3073 35.6779 27.3073 35.5058C27.3073 35.3338 27.3756 35.1688 27.4972 35.0472C27.6189 34.9255 27.7839 34.8572 27.9559 34.8572H47.9745C48.1465 34.8572 48.3115 34.9255 48.4332 35.0472C48.5548 35.1688 48.6232 35.3338 48.6232 35.5058C48.6232 35.6779 48.5548 35.8428 48.4332 35.9645C48.3115 36.0861 48.1465 36.1545 47.9745 36.1545Z" fill="#1E1E1E"/>
<ellipse cx="25.5" cy="37.7735" rx="7.5" ry="7.35849" fill="#2E2E2E"/>
<g filter="url(#filter0_d)">
<path d="M35.6875 37.0659C35.6875 31.7534 31.3125 27.3784 26 27.3784C20.6484 27.3784 16.3125 31.7534 16.3125 37.0659C16.3125 42.4175 20.6484 46.7534 26 46.7534C31.3125 46.7534 35.6875 42.4175 35.6875 37.0659ZM24.8672 42.2222C24.6328 42.4565 24.2031 42.4565 23.9688 42.2222L19.9062 38.1597C19.6719 37.9253 19.6719 37.4956 19.9062 37.2612L20.8047 36.4019C21.0391 36.1284 21.4297 36.1284 21.6641 36.4019L24.4375 39.1362L30.2969 33.2769C30.5312 33.0034 30.9219 33.0034 31.1562 33.2769L32.0547 34.1362C32.2891 34.3706 32.2891 34.8003 32.0547 35.0347L24.8672 42.2222Z" fill="url(#paint0_linear)"/>
</g>
<defs>
<filter id="filter0_d" x="0.3125" y="16.3784" width="51.375" height="51.375" filterUnits="userSpaceOnUse" color-interpolation-filters="sRGB">
<feFlood flood-opacity="0" result="BackgroundImageFix"/>
<feColorMatrix in="SourceAlpha" type="matrix" values="0 0 0 0 0 0 0 0 0 0 0 0 0 0 0 0 0 0 127 0"/>
<feOffset dy="5"/>
<feGaussianBlur stdDeviation="8"/>
<feColorMatrix type="matrix" values="0 0 0 0 1 0 0 0 0 0.854902 0 0 0 0 0.258824 0 0 0 0.6 0"/>
<feBlend mode="normal" in2="BackgroundImageFix" result="effect1_dropShadow"/>
<feBlend mode="normal" in="SourceGraphic" in2="effect1_dropShadow" result="shape"/>
</filter>
<linearGradient id="paint0_linear" x1="26" y1="22.5659" x2="26" y2="51.9999" gradientUnits="userSpaceOnUse">
<stop stop-color="#FFDA42"/>
<stop offset="1" stop-color="#FFDA42"/>
</linearGradient>
</defs>
</svg>
